<svg width="750" height="275" viewBox="0 0 750 275" fill="none" xmlns="http://www.w3.org/2000/svg">
<path d="M0 123.2H36L44.1 103.7H62.3L70.4 123.2H141.3V108.3L147.6 123.2H184.4L190.8 108V123.2H366.9L366.8 91.2H370.2C372.6 91.2 373.3 91.5 373.3 95.4V123.2H464.4V115.7C471.8 119.7 483.2 123.2 498.3 123.2H536.6L544.8 103.7H563L571 123.2H644.8V104.7L656 123.2H715.2V0.700012H656.6V15.1L648.4 0.700012H588.3V15.1L580.8 0.700012H499.6C486 0.700012 474.1 2.60002 464.4 7.80002V0.700012H408.4V7.80002C402.3 2.40002 393.9 0.700012 384.6 0.700012H179.9L166.2 32.3L152.1 0.700012H87.6V15.1L80.5 0.700012H25.5L0 58.9V123.2ZM227.4 105.5H205.8L205.7 36.7L175.1 105.5H156.6L126 36.7V105.5H83.1L75 85.9H31.1L22.9 105.5H0L37.8 17.7H69.1L104.9 100.8V17.7H139.4L166.9 77.3L192.3 17.7H227.4V105.5V105.5ZM67.8 67.7L53.3 32.7L39 67.7H67.8ZM313.4 105.5H243V17.7H313.4V36H264.1V51.8H312.2V69.8H264.1V87.3H313.4V105.5ZM412.7 41.3C412.7 55.3 403.3 62.6 397.8 64.7C402.4 66.5 406.4 69.6 408.2 72.1C411.2 76.5 411.7 80.4 411.7 88.3V105.5H390.5L390.4 94.4C390.4 89.2 390.9 81.6 387.1 77.3C384 74.2 379.3 73.6 371.7 73.6H349.1V105.5H328V17.7H376.5C387.3 17.7 395.2 18 402 21.9C408.7 25.8 412.7 31.5 412.7 41.3V41.3ZM386 54.4C383.1 56.1 379.7 56.2 375.6 56.2H350V36.7H375.9C379.6 36.7 383.4 36.8 385.9 38.3C388.7 39.5 390.4 42.3 390.4 46C390.4 49.9 388.8 53 386 54.4ZM446.5 105.5H425V17.7H446.5V105.5ZM696.2 105.5H666.4L626.4 39.6V105.5H583.4L575.2 85.9H531.4L523.5 105.5H498.8C488.6 105.5 475.6 103.3 468.2 95.8C460.8 88.3 457 78.2 457 62.3C457 49.2 459.3 37.3 468.3 27.9C475.2 20.9 485.8 17.7 500.4 17.7H520.8V36.5H500.8C493.1 36.5 488.7 37.6 484.6 41.7C481 45.4 478.5 52.4 478.5 61.6C478.5 71 480.4 77.8 484.3 82.2C487.5 85.7 493.4 86.8 499 86.8H508.5L538.2 17.7H569.8L605.5 100.8V17.7H637.6L674.6 78.9V17.7H696.2V105.5V105.5ZM568.1 67.7L553.5 32.7L539 67.7H568.1ZM750 245.8C744.8 253.2 734.9 257 721.3 257H680.6V238.2H721.2C725.2 238.2 728 237.6 729.7 236C731.2 234.6 732.2 232.7 732.2 230.3C732.2 227.7 731.2 225.7 729.6 224.5C728.1 223.1 725.9 222.5 722.2 222.5C702.4 221.8 677.7 223.1 677.7 195.3C677.7 182.6 685.8 169.1 708 169.1H750V151.7H710.9C699.2 151.7 690.6 154.5 684.5 158.8V151.7H626.8C617.6 151.7 606.8 153.9 601.6 158.8V151.7H498.6V158.8C490.4 153 476.5 151.7 470.1 151.7H402.2V158.8C395.7 152.6 381.2 151.7 372.4 151.7H296.4L279 170.4L262.6 151.7H149V274.3H260.5L278.4 255.2L295.3 274.3H364.1V245.5H370.8C380 245.6 390.7 245.3 400.2 241.2V274.3H456.9V242.3H459.6C463.1 242.3 463.5 242.5 463.5 245.9V274.3H635.7C646.6 274.3 658.1 271.5 664.4 266.4V274.3H719C730.4 274.3 741.5 272.7 750 268.6V245.8V245.8ZM408.5 198.6C408.5 223 390.2 228.1 371.7 228.1H345.4V257.5H304.4L278.5 228.4L251.5 257.5H168V169.7H252.8L278.7 198.5L305.6 169.7H372.9C389.7 169.7 408.5 174.3 408.5 198.6V198.6ZM240.8 239H189V221.6H235.3V203.6H189V187.7H241.8L264.9 213.3L240.8 239V239ZM324.4 249.1L292 213.3L324.4 178.7V249.1ZM372.2 210H345V187.7H372.5C380.1 187.7 385.4 190.8 385.4 198.4C385.4 206 380.3 210 372.2 210ZM515 169.7H585.3V187.8H536V203.8H584.1V221.7H536V239.2L585.3 239.3V257.5H515V169.7ZM487.9 216.7C492.6 218.4 496.4 221.5 498.2 224.1C501.2 228.4 501.7 232.4 501.7 240.1V257.5H480.6V246.5C480.6 241.2 481.1 233.4 477.2 229.3C474.1 226.2 469.4 225.4 461.7 225.4H439.2V257.5H418V169.7H466.7C477.3 169.7 485.1 170.1 492 173.8C498.7 177.8 502.9 183.3 502.9 193.3C502.9 207.3 493.5 214.5 487.9 216.7ZM476 205.6C473.2 207.3 469.7 207.4 465.6 207.4H440V187.7H465.9C469.7 187.7 473.4 187.7 476 189.3C478.7 190.7 480.4 193.4 480.4 197.2C480.4 200.9 478.7 203.9 476 205.6ZM666.3 211.2C670.4 215.4 672.6 220.8 672.6 229.8C672.6 248.7 660.8 257.5 639.5 257.5H598.5V238.7H639.4C643.4 238.7 646.2 238.2 648 236.5C649.4 235.2 650.5 233.2 650.5 230.8C650.5 228.2 649.3 226.2 647.9 225C646.3 223.6 644 223 640.4 223C620.7 222.3 596 223.6 596 195.8C596 183.1 604 169.7 626.1 169.7H668.4V188.4H629.7C625.9 188.4 623.4 188.5 621.3 190C618.9 191.4 618.1 193.5 618.1 196.3C618.1 199.6 620 201.8 622.7 202.8C624.9 203.6 627.3 203.8 630.9 203.8L642.3 204.1C653.7 204.4 661.6 206.4 666.3 211.2V211.2ZM750 187.7H711.6C707.7 187.7 705.2 187.8 703 189.3C700.8 190.7 700 192.8 700 195.6C700 198.9 701.8 201.1 704.6 202.1C706.8 202.9 709.2 203.1 712.7 203.1L724.1 203.4C735.7 203.7 743.4 205.7 748 210.5C748.9 211.2 749.4 211.9 750 212.7V187.7V187.7Z" fill="white"/>
</svg>
