<svg width="750" height="471" viewBox="0 0 750 471" fill="none" xmlns="http://www.w3.org/2000/svg">
<path d="M710 0H40C17.9086 0 0 17.9086 0 40V431C0 453.091 17.9086 471 40 471H710C732.091 471 750 453.091 750 431V40C750 17.9086 732.091 0 710 0Z" fill="#0079BE"/>
<path d="M584.934 237.947C584.934 138.532 501.953 69.814 411.039 69.847H332.797C240.794 69.814 165.067 138.552 165.067 237.947C165.067 328.877 240.794 403.587 332.797 403.151H411.039C501.953 403.587 584.934 328.858 584.934 237.947Z" fill="white"/>
<path d="M333.28 83.93C249.21 83.957 181.086 152.238 181.066 236.51C181.086 320.768 249.21 389.043 333.28 389.07C417.37 389.043 485.508 320.768 485.52 236.51C485.508 152.238 417.37 83.957 333.28 83.93V83.93Z" fill="#0079BE"/>
<path d="M237.066 236.098C237.146 194.918 262.812 159.802 299.006 145.848V326.328C262.812 312.381 237.145 277.284 237.066 236.098V236.098ZM368.066 326.373V145.847C404.273 159.767 429.98 194.904 430.046 236.104C429.98 277.316 404.273 312.426 368.066 326.373Z" fill="white"/>
</svg>
