<svg width="750" height="471" viewBox="0 0 750 471" fill="none" xmlns="http://www.w3.org/2000/svg">
<path d="M52.9 0C23.7 0 0 23.2 0 51.7V419.3C0 447.9 23.7 471 52.9 471H697.1C726.3 471 750 447.8 750 419.3V51.7C750 23.1 726.3 0 697.1 0H52.9Z" fill="#4D4D4D"/>
<path d="M314.6 152.2C323.1 152.2 330.2 153.9 338.9 158.1V180.2C330.7 172.6 323.5 169.4 314.1 169.4C295.6 169.4 281 183.9 281 202.4C281 221.9 295.1 235.6 315 235.6C324 235.6 331 232.6 338.9 225.1V247.2C329.9 251.2 322.6 252.8 314.1 252.8C284 252.8 260.7 230.8 260.7 202.6C260.7 174.6 284.6 152.2 314.6 152.2V152.2ZM221.2 152.8C232.3 152.8 242.5 156.4 250.9 163.5L240.6 176.3C235.5 170.9 230.6 168.5 224.7 168.5C216.2 168.5 210 173.2 210 179.2C210 184.4 213.5 187.2 225.3 191.3C247.8 199.1 254.4 206.1 254.4 221.4C254.4 240 240 253 219.5 253C204.5 253 193.5 247.3 184.4 234.6L197.2 223C201.8 231.3 209.3 235.8 218.8 235.8C227.6 235.8 234.1 230 234.1 222.2C234.1 218.2 232.1 214.7 228.2 212.3C226.2 211.1 222.3 209.4 214.5 206.8C196 200.4 189.6 193.6 189.6 180.4C189.6 164.6 203.3 152.8 221.2 152.8V152.8ZM446.9 154.5H468.5L495.5 219.1L522.8 154.5H544.2L500.5 253.2H489.9L446.9 154.5V154.5ZM64.8 154.6H93.8C125.8 154.6 148.2 174.4 148.2 202.8C148.2 217 141.3 230.7 129.8 239.8C120.1 247.4 109 250.9 93.7 250.9H64.8V154.6V154.6ZM157.3 154.6H177V250.9H157.3V154.6V154.6ZM553.2 154.6H609.2V170.9H572.9V192.3H607.8V208.6H572.9V234.6H609.2V250.9H553.2V154.6V154.6ZM622.3 154.6H651.5C674.3 154.6 687.4 165 687.4 183C687.4 197.8 679.2 207.5 664.3 210.3L696.2 250.9H671.9L644.6 212.2H642V250.9H622.3V154.6ZM642 169.8V198.9H647.7C660.4 198.9 667 193.7 667 184.1C667 174.7 660.4 169.8 648.1 169.8H642V169.8ZM84.6 170.9V234.6H89.9C102.6 234.6 110.7 232.3 116.9 226.9C123.7 221.2 127.8 211.9 127.8 202.7C127.8 193.5 123.7 184.5 116.9 178.7C110.4 173.1 102.6 170.9 89.9 170.9H84.6V170.9Z" fill="white"/>
<path d="M399.2 151.6C428.9 151.6 453 173.7 453 201.1C453 228.5 428.9 250.7 399.2 250.7C369.4 250.7 345.3 228.5 345.3 201.1C345.3 173.7 369.4 151.6 399.2 151.6ZM750 271.1C724.9 288.3 537.4 411.5 212.7 471H697.1C726.3 471 750 447.8 750 419.3V271.1V271.1Z" fill="#F47216"/>
</svg>
