<svg width="485" height="374" viewBox="0 0 485 374" fill="none" xmlns="http://www.w3.org/2000/svg">
<path d="M484.486 297.892C484.486 339.507 450.758 373.252 409.126 373.252H0V75.371C0 33.745 33.733 0.000999451 75.365 0.000999451L484.486 0V297.892Z" fill="white"/>
<path d="M351.102 193.171C362.786 193.424 374.539 192.655 386.179 193.571C397.966 195.771 400.807 213.614 390.335 219.459C383.194 223.309 374.702 220.891 366.956 221.572H351.103V193.171H351.102ZM392.935 161.026C395.531 170.191 386.697 178.418 377.869 177.156H351.102C351.287 168.514 350.734 159.135 351.374 150.948C362.098 151.249 372.923 150.332 383.584 151.428C388.164 152.578 391.997 156.344 392.934 161.026H392.935ZM457.363 25.123C457.861 42.624 457.434 61.05 457.577 78.906C457.542 151.502 457.649 224.1 457.522 296.696C457.053 323.903 432.94 347.54 405.922 348.083C378.876 348.194 351.827 348.099 324.78 348.13V238.38C354.25 238.226 383.739 238.687 413.197 238.148C426.864 237.288 441.829 228.272 442.467 213.233C444.077 198.131 429.835 187.683 416.314 186.032C411.116 185.897 411.27 184.517 416.314 183.915C429.206 181.128 439.334 167.782 435.54 154.416C432.304 140.358 416.767 134.917 403.843 134.944C377.492 134.764 351.134 134.918 324.78 134.867C324.952 114.378 324.426 93.867 325.066 73.393C327.153 46.677 351.872 24.646 378.513 25.123H457.363Z" fill="url(#paint0_linear)"/>
<path d="M26.983 76.166C27.657 49.003 51.872 25.555 78.858 25.159C105.802 25.076 132.749 25.147 159.695 25.123C159.621 116.008 159.843 206.9 159.583 297.781C158.545 324.615 134.593 347.615 107.904 348.088C80.908 348.187 53.909 348.102 26.912 348.13V234.677C53.135 240.871 80.634 243.509 107.385 239.398C123.378 236.823 140.873 228.974 146.287 212.384C150.273 198.192 148.029 183.258 148.621 168.692V134.868H102.324C102.116 157.238 102.75 179.648 101.989 201.993C100.741 215.727 87.143 224.453 74.189 223.988C58.123 224.157 26.291 212.348 26.291 212.348C26.211 170.431 26.757 117.94 26.983 76.166Z" fill="url(#paint1_linear)"/>
<path d="M176.963 148.516C174.529 149.033 176.473 140.216 175.849 136.87C176.015 115.72 175.503 94.547 176.133 73.412C178.216 46.583 203.124 24.496 229.872 25.124H308.638C308.564 116.008 308.785 206.899 308.526 297.78C307.487 324.614 283.534 347.613 256.846 348.088C229.848 348.188 202.848 348.103 175.849 348.131V223.834C194.289 238.962 219.349 241.318 242.321 241.359C259.638 241.353 276.855 238.684 293.671 234.689V211.916C274.718 221.363 252.438 227.362 231.428 221.934C216.772 218.284 206.134 204.123 206.372 188.998C204.673 173.27 213.896 156.663 229.353 151.987C248.543 145.979 269.461 150.574 287.449 158.385C291.304 160.403 295.214 162.906 293.671 156.464V138.564C263.587 131.407 231.57 128.772 201.342 136.56C192.594 139.028 184.072 142.77 176.963 148.516Z" fill="url(#paint2_linear)"/>
<defs>
<linearGradient id="paint0_linear" x1="324.781" y1="186.627" x2="457.578" y2="186.627" gradientUnits="userSpaceOnUse">
<stop stop-color="#007B40"/>
<stop offset="1" stop-color="#55B330"/>
</linearGradient>
<linearGradient id="paint1_linear" x1="26.9129" y1="186.627" x2="159.695" y2="186.627" gradientUnits="userSpaceOnUse">
<stop stop-color="#1D2970"/>
<stop offset="1" stop-color="#006DBA"/>
</linearGradient>
<linearGradient id="paint2_linear" x1="175.85" y1="186.628" x2="308.637" y2="186.628" gradientUnits="userSpaceOnUse">
<stop stop-color="#6E2B2F"/>
<stop offset="1" stop-color="#E30138"/>
</linearGradient>
</defs>
</svg>
