<svg width="600" height="361" viewBox="0 0 600 361" fill="none" xmlns="http://www.w3.org/2000/svg">
<path d="M 359 180.5 C 359 279.6 278.6 360 179.5 360 C 80.4 360 0 279.6 0 180.5 C 0 81.4 80.4 1 179.5 1 C 278.6 1 359 81.4 359 180.5 Z" fill="#d9222a"/>
<path d="M 420.5 1 C 374.1 1 331.9 18.6 300 47.5 C 293.5 53.4 287.4 59.7 281.9 66.5 H 318.1 C 323.1 72.5 327.7 78.8 331.8 85.5 H 268.2 C 264.4 91.6 260.9 97.9 257.8 104.5 H 342.2 C 345 110.7 347.6 117 349.8 123.5 H 250.2 C 248.2 129.7 246.4 136.1 245 142.5 H 355 C 357.7 155 359 167.7 359 180.5 C 359 200.4 355.8 219.6 349.8 237.5 H 250.2 C 252.4 244 254.9 250.3 257.8 256.5 H 342.2 C 339.1 263.1 335.6 269.4 331.8 275.5 H 268.2 C 272.3 282.2 276.9 288.5 281.9 294.5 H 318.1 C 312.6 301.3 306.5 307.7 300 313.6 C 331.9 342.4 374.1 360 420.5 360 C 519.6 360 600 279.6 600 180.5 C 600 81.4 519.6 1 420.5 1 Z" fill="#ee9f2d"/>
<path d="M 95.2 227.7 H 75.7 L 86.9 157.8 L 62 227.7 H 48.7 L 47 158.2 L 35.3 227.7 H 17.1 L 32.3 136.7 H 60.3 L 61.1 193.1 L 80 136.7 H 110.3 L 95.2 227.7" fill="white"/>
<path d="M 143.2 194.8 C 141.2 194.5 140.2 194.5 138.8 194.5 C 127.8 194.5 122.2 198.2 122.2 205.7 C 122.2 210.3 124.9 213.3 129.2 213.3 C 137.1 213.3 142.9 205.7 143.2 194.8 Z M 157.4 227.7 H 141.2 L 141.6 220.1 C 136.7 226.1 130.1 229 121.2 229 C 110.6 229 103.4 220.8 103.4 208.8 C 103.4 190.8 116 180.3 137.6 180.3 C 139.8 180.3 142.6 180.5 145.5 180.8 C 146.1 178.4 146.3 177.3 146.3 176 C 146.3 171.1 142.9 169.3 133.8 169.3 C 124.3 169.2 116.4 171.6 113.2 172.6 C 113.4 171.4 115.9 156 115.9 156 C 125.6 153.1 132 152 139.2 152 C 155.9 152 164.8 159.6 164.8 173.8 C 164.8 177.6 164.2 182.3 163.2 188.4 C 161.5 199.2 157.9 222.2 157.4 227.7 Z M 418.7 139.2 L 415.6 158.9 C 408.6 155.4 403.6 154 398.1 154 C 383.6 154 373.4 168.1 373.4 188.1 C 373.4 201.9 380.3 210.3 391.6 210.3 C 396.4 210.3 401.7 208.8 408.1 205.6 L 404.7 226.4 C 397.5 228.3 392.9 229 387.5 229 C 366.5 229 353.4 213.9 353.4 189.7 C 353.4 157.2 371.5 134.4 397.3 134.4 C 405.8 134.4 415.9 138 418.7 139.2 H 418.7 Z M 450.2 194.8 C 448.1 194.5 447.2 194.5 445.8 194.5 C 434.8 194.5 429.2 198.2 429.2 205.7 C 429.2 210.3 431.9 213.3 436.2 213.3 C 444.1 213.3 449.9 205.7 450.2 194.8 Z M 464.4 227.7 H 448.2 L 448.6 220.1 C 443.7 226.1 437.1 229 428.2 229 C 417.6 229 410.4 220.8 410.4 208.8 C 410.4 190.8 423 180.3 444.6 180.3 C 446.8 180.3 449.6 180.5 452.5 180.8 C 453.1 178.4 453.3 177.3 453.3 176 C 453.3 171.1 449.9 169.3 440.8 169.3 C 431.3 169.2 423.4 171.6 420.2 172.6 C 420.4 171.4 422.9 156 422.9 156 C 432.6 153.1 439 152 446.2 152 C 462.9 152 471.8 159.6 471.8 173.8 C 471.8 177.6 471.2 182.3 470.2 188.4 C 468.5 199.2 464.9 222.2 464.4 227.7 Z M 244 226.6 C 238.6 228.3 234.5 229 230 229 C 220 229 214.6 223.3 214.6 212.8 C 214.4 209.5 216 200.9 217.3 193 C 218.4 186.1 225.7 142.5 225.7 142.5 H 245.1 L 242.8 153.7 H 252.7 L 250.1 171.5 H 240.1 C 237.9 185.6 234.7 203.1 234.6 205.4 C 234.6 209.3 236.7 210.9 241.3 210.9 C 243.5 210.9 245.2 210.7 246.6 210.2 L 244 226.6 V 226.6 Z M 303.4 226 C 296.7 228.1 290.3 229 283.5 229 C 261.8 229 250.5 217.7 250.5 196 C 250.5 170.7 264.9 152 284.4 152 C 300.4 152 310.6 162.5 310.6 178.8 C 310.6 184.3 309.9 189.6 308.2 197.1 H 269.6 C 268.3 207.8 275.2 212.3 286.4 212.3 C 293.4 212.3 299.6 210.8 306.6 207.6 L 303.4 226 V 226 Z M 292.5 182.1 C 292.6 180.6 294.5 168.9 283.5 168.9 C 277.3 168.9 272.9 173.6 271.1 182.1 H 292.5 Z M 169.1 177.1 C 169.1 186.5 173.6 192.9 183.9 197.8 C 191.8 201.5 193 202.6 193 206 C 193 210.6 189.5 212.7 181.8 212.7 C 176 212.7 170.6 211.8 164.4 209.7 C 164.4 209.7 161.8 226.1 161.7 226.8 C 166.1 227.8 170.1 228.7 182 229 C 202.5 229 212 221.2 212 204.3 C 212 194.1 208 188.1 198.3 183.6 C 190.1 179.9 189.2 179.1 189.2 175.6 C 189.2 171.6 192.4 169.5 198.7 169.5 C 202.5 169.5 207.8 170 212.7 170.7 L 215.5 153.5 C 210.4 152.7 202.8 152 198.3 152 C 176.5 152 169 163.4 169.1 177.1 Z M 567.5 227.7 H 549.1 L 550 220.8 C 544.6 226.6 539.2 229 532 229 C 517.9 229 508.5 216.8 508.5 198.3 C 508.5 173.7 523 152.9 540.2 152.9 C 547.8 152.9 553.5 156 558.8 163 L 563.1 136.7 H 582.4 L 567.5 227.7 Z M 538.8 210.6 C 547.8 210.6 554.2 200.3 554.2 185.7 C 554.2 176.3 550.6 171.2 543.9 171.2 C 535 171.2 528.8 181.5 528.8 196 C 528.8 205.7 532.1 210.6 538.8 210.6 Z M 481.9 153.7 C 479.5 176.6 475.1 199.8 471.8 222.8 L 470.9 227.7 H 490.4 C 497.3 182.5 499 173.6 509.9 174.7 C 511.7 165.5 514.9 157.3 517.3 153.3 C 509.2 151.6 504.6 156.2 498.7 164.9 C 499.1 161.1 500 157.5 499.8 153.7 H 481.9 H 481.9 Z M 321.5 153.7 C 319.1 176.6 314.7 199.8 311.3 222.8 L 310.4 227.7 H 329.9 C 336.9 182.5 338.6 173.6 349.5 174.7 C 351.3 165.5 354.5 157.3 356.9 153.3 C 348.8 151.6 344.2 156.2 338.2 164.9 C 338.7 161.1 339.6 157.5 339.4 153.7 H 321.5 Z M 576.1 221.9 C 576.1 218.7 578.7 216.1 581.9 216.1 C 582.6 216.1 583.4 216.3 584.1 216.6 C 584.8 216.9 585.4 217.3 586 217.8 C 586.5 218.4 586.9 219 587.2 219.7 C 587.5 220.4 587.7 221.2 587.7 221.9 C 587.7 223.5 587 225 586 226 C 584.9 227.1 583.4 227.7 581.9 227.7 C 580.3 227.7 578.9 227.1 577.8 226 C 576.7 225 576.1 223.5 576.1 221.9 Z M 581.9 226.3 C 582.4 226.3 583 226.2 583.5 226 C 584.1 225.8 584.6 225.5 585 225.1 C 585.4 224.7 585.7 224.2 585.9 223.6 C 586.2 223.1 586.3 222.5 586.3 221.9 C 586.3 221.4 586.2 220.8 585.9 220.3 C 585.7 219.7 585.4 219.2 585 218.8 C 584.6 218.4 584.1 218.1 583.5 217.9 C 583 217.7 582.4 217.5 581.9 217.5 C 580.7 217.5 579.6 218 578.7 218.8 C 577.9 219.7 577.5 220.8 577.5 221.9 C 577.5 223.1 577.9 224.2 578.7 225.1 C 579.6 225.9 580.7 226.3 581.9 226.3 Z M 581.1 224.5 H 579.9 V 219.4 H 582 C 582.5 219.4 583 219.4 583.3 219.7 C 583.8 219.9 584 220.4 584 220.9 C 584 221.5 583.7 222 583.1 222.2 L 584 224.5 H 582.7 L 582 222.5 H 581.1 V 224.5 L 581.1 224.5 Z M 581.1 221.6 H 581.7 C 582 221.6 582.2 221.6 582.5 221.5 C 582.7 221.4 582.8 221.1 582.8 220.9 C 582.8 220.8 582.7 220.7 582.7 220.6 C 582.6 220.5 582.6 220.4 582.5 220.4 C 582.3 220.3 581.9 220.3 581.7 220.3 H 581.1 V 221.6 Z" fill="white"/>
</svg>
