<svg width="571" height="361" viewBox="0 0 571 361" fill="none" xmlns="http://www.w3.org/2000/svg">
<path d="M111.81 0H254.203C274.073 0 286.49 16.406 281.833 36.47L215.5 323.948C210.844 344.012 190.871 360.418 171.002 360.418H28.61C8.73999 360.418 -3.67701 344.012 0.979994 323.948L67.311 36.47C71.968 16.302 91.837 0 111.706 0H111.81Z" fill="#D10429"/>
<path d="M241.75 0H405.565C425.434 0 416.431 16.406 411.774 36.47L345.44 323.948C340.783 344.012 342.232 360.418 322.363 360.418H158.549C138.577 360.418 126.262 344.012 131.022 323.948L197.356 36.47C202.012 16.302 221.88 0 241.854 0H241.75Z" fill="#022E64"/>
<path d="M399.815 0H542.209C562.078 0 574.496 16.406 569.839 36.47L503.506 323.948C498.849 344.012 478.876 360.418 459.008 360.418H316.614C296.642 360.418 284.327 344.012 288.984 323.948L355.317 36.47C359.974 16.302 379.843 0 399.711 0H399.815Z" fill="#076F74"/>
<path d="M375.905 271.015H389.358L393.187 257.952H379.837L375.905 271.015ZM386.667 235.067L382.01 250.533C382.01 250.533 387.081 247.92 389.875 247.084C392.669 246.457 396.808 245.934 396.808 245.934L400.016 235.171H386.564L386.667 235.067ZM393.394 212.913L388.944 227.752C388.944 227.752 393.911 225.452 396.705 224.722C399.499 223.99 403.638 223.781 403.638 223.781L406.846 213.017H393.497L393.394 212.913ZM423.094 212.913L405.708 270.91H410.365L406.743 282.927H402.086L400.948 286.585H384.39L385.529 282.927H352L355.311 271.851H358.726L376.319 212.913L379.837 201H396.705L394.945 206.956C394.945 206.956 399.395 203.717 403.742 202.567C407.985 201.418 432.407 201 432.407 201L428.785 212.808H422.99L423.093 212.913H423.094Z" fill="#FEFEFE"/>
<path d="M430 201H448.006L448.213 207.792C448.11 208.942 449.041 209.464 451.214 209.464H454.836L451.525 220.646H441.797C433.415 221.273 430.207 217.616 430.414 213.54L430.104 201.104L430 201ZM432.216 254.2H415.038L417.935 244.273H437.597L440.391 235.181H421.04L424.351 224H478.163L474.852 235.181H456.742L453.948 244.273H472.058L469.056 254.2H449.498L445.98 258.38H453.948L455.914 270.92C456.121 272.174 456.121 273.01 456.534 273.533C456.949 273.951 459.329 274.16 460.674 274.16H463.054L459.329 286.386H453.223C452.293 286.386 450.843 286.282 448.877 286.282C447.014 286.072 445.773 285.028 444.531 284.401C443.392 283.878 441.737 282.52 441.323 280.116L439.46 267.576L430.56 279.907C427.766 283.774 423.938 286.804 417.418 286.804H405L408.311 275.936H413.071C414.417 275.936 415.659 275.414 416.591 274.891C417.521 274.473 418.349 274.055 419.177 272.697L432.217 254.2H432.216ZM244.314 227H289.743L286.431 237.972H268.321L265.528 247.272H284.155L280.74 258.559H262.216L257.663 273.711C257.146 275.383 262.113 275.592 263.872 275.592L273.186 274.338L269.46 286.878H248.556C246.901 286.878 245.659 286.669 243.796 286.251C242.036 285.833 241.209 284.997 240.485 283.848C239.76 282.594 238.518 281.653 239.346 278.936L245.348 258.872H235L238.415 247.377H248.763L251.557 238.077H241.21L244.522 227.104L244.315 227H244.314ZM275.701 207.165H294.328L290.913 218.555H265.456L262.662 220.959C261.42 222.109 261.11 221.691 259.557 222.527C258.109 223.258 255.107 224.721 251.175 224.721H243L246.311 213.749H248.795C250.865 213.749 252.314 213.539 253.038 213.122C253.866 212.599 254.798 211.45 255.728 209.569L260.385 201H278.909L275.701 207.27V207.165ZM310.809 225.975C310.809 225.975 315.879 221.273 324.572 219.81C326.538 219.392 338.956 219.6 338.956 219.6L340.819 213.33H314.638L310.808 226.08V225.975H310.809ZM335.438 230.782H309.463L307.911 236.112H330.471C333.161 235.798 333.679 236.216 333.886 236.007L335.541 230.782H335.438ZM301.702 201.104H317.535L315.259 209.151C315.259 209.151 320.226 205.075 323.744 203.612C327.263 202.358 335.127 201.104 335.127 201.104L360.791 201L351.995 230.469C350.546 235.485 348.787 238.724 347.752 240.292C346.822 241.755 345.682 243.113 343.406 244.367C341.233 245.517 339.266 246.248 337.404 246.353C335.748 246.457 333.058 246.562 329.539 246.562H304.807L297.873 269.865C297.253 272.164 296.942 273.313 297.356 273.94C297.666 274.463 298.598 275.09 299.736 275.09L310.602 274.045L306.876 286.794H294.666C290.733 286.794 287.939 286.689 285.973 286.584C284.11 286.376 282.143 286.584 280.798 285.54C279.66 284.495 277.901 283.136 278.004 281.778C278.108 280.524 278.625 278.434 279.454 275.508L301.702 201.104Z" fill="#FEFEFE"/>
<path d="M347.84 248L346.391 255.106C345.771 257.3 345.253 258.972 343.597 260.436C341.838 261.898 339.872 263.466 335.112 263.466L326.316 263.884L326.212 271.826C326.109 274.02 326.73 273.811 327.04 274.229C327.454 274.647 327.764 274.752 328.178 274.961L330.972 274.751L339.355 274.334L335.836 286.038H326.212C319.486 286.038 314.415 285.828 312.862 284.575C311.207 283.53 311 282.275 311 279.977L311.62 248.836H327.04L326.833 255.21H330.558C331.8 255.21 332.732 255.106 333.249 254.792C333.766 254.479 334.077 253.956 334.284 253.225L335.836 248.209H347.944L347.84 248ZM128.47 92C127.953 94.508 118.019 140.592 118.019 140.592C115.845 149.892 114.293 156.581 109.119 160.865C106.118 163.373 102.599 164.522 98.564 164.522C92.044 164.522 88.319 161.283 87.698 155.118L87.594 153.028C87.594 153.028 89.56 140.592 89.56 140.488C89.56 140.488 99.909 98.479 101.772 92.94C101.875 92.627 101.875 92.418 101.875 92.313C81.695 92.523 78.074 92.313 77.867 92C77.763 92.418 77.246 95.03 77.246 95.03L66.69 142.37L65.758 146.34L64 159.508C64 163.374 64.724 166.613 66.277 169.226C71.14 177.795 84.904 179.049 92.665 179.049C102.703 179.049 112.12 176.854 118.432 172.988C129.505 166.404 132.402 156.059 134.886 146.968L136.128 142.265C136.128 142.265 146.787 98.689 148.65 93.046C148.753 92.732 148.753 92.523 148.857 92.419C134.162 92.523 129.919 92.419 128.47 92.105V92ZM187.5 178.623C180.359 178.518 177.772 178.518 169.39 178.936L169.079 178.309C169.803 175.069 170.631 171.935 171.252 168.695L172.287 164.306C173.839 157.514 175.288 149.467 175.495 147.064C175.702 145.601 176.115 141.944 171.976 141.944C170.217 141.944 168.458 142.779 166.596 143.615C165.56 147.273 163.594 157.514 162.559 162.112C160.489 171.935 160.386 173.084 159.455 177.892L158.834 178.518C151.487 178.414 148.9 178.414 140.414 178.832L140 178.1C141.449 172.248 142.794 166.396 144.14 160.544C147.658 144.764 148.59 138.704 149.52 130.657L150.245 130.239C158.524 129.09 160.49 128.776 169.493 127L170.217 127.836L168.872 132.852C170.424 131.912 171.873 130.971 173.425 130.239C177.668 128.149 182.325 127.522 184.912 127.522C188.844 127.522 193.191 128.672 194.95 133.27C196.606 137.345 195.57 142.361 193.294 152.289L192.156 157.305C189.879 168.382 189.466 170.367 188.223 177.891L187.396 178.518L187.499 178.623H187.5ZM216.558 178.65C212.212 178.65 209.418 178.546 206.728 178.65C204.037 178.65 201.45 178.86 197.414 178.964L197.207 178.65L197 178.232C198.138 174.052 198.656 172.589 199.277 171.126C199.794 169.663 200.311 168.2 201.347 163.916C202.588 158.377 203.416 154.511 203.933 151.062C204.554 147.822 204.865 145.002 205.279 141.762L205.589 141.553L205.899 141.239C210.246 140.612 212.937 140.194 215.731 139.776C218.525 139.358 221.422 138.836 225.872 138L226.079 138.418L226.182 138.836L223.699 149.181C222.871 152.63 222.043 156.078 221.319 159.527C219.766 166.842 219.042 169.559 218.732 171.544C218.318 173.425 218.214 174.366 217.593 178.128L217.179 178.441L216.765 178.755L216.558 178.65ZM262.499 152.975C262.189 154.856 260.533 161.858 258.36 164.784C256.808 166.978 255.048 168.337 252.979 168.337C252.358 168.337 248.839 168.337 248.736 163.007C248.736 160.395 249.253 157.677 249.874 154.752C251.737 146.287 254.014 139.286 259.705 139.286C264.155 139.286 264.465 144.511 262.499 152.976V152.975ZM281.229 153.811C283.713 142.734 281.747 137.509 279.367 134.374C275.642 129.567 269.019 128 262.189 128C258.049 128 248.322 128.418 240.664 135.524C235.18 140.644 232.593 147.646 231.144 154.334C229.591 161.126 227.832 173.353 239.009 177.951C242.423 179.414 247.391 179.831 250.599 179.831C258.774 179.831 267.156 177.533 273.469 170.845C278.332 165.411 280.505 157.26 281.333 153.811H281.23H281.229ZM455.662 179.891C446.969 179.787 444.486 179.787 436.517 180.205L436 179.578C438.173 171.322 440.346 162.962 442.313 154.602C444.796 143.734 445.417 139.136 446.245 132.762L446.865 132.239C455.455 130.985 457.835 130.672 466.838 129L467.045 129.731C465.389 136.628 463.837 143.421 462.181 150.213C458.87 164.53 457.731 171.845 456.49 179.369L455.662 179.996V179.891Z" fill="#FEFEFE"/>
<path d="M443.16 154.374C442.746 156.15 441.09 163.256 438.917 166.182C437.468 168.272 433.95 169.631 431.984 169.631C431.363 169.631 427.948 169.631 427.741 164.406C427.741 161.793 428.258 159.076 428.879 156.15C430.742 147.895 433.019 140.893 438.71 140.893C443.16 140.893 445.126 146.013 443.16 154.478V154.374ZM460.235 155.21C462.718 144.133 452.577 154.27 451.025 150.612C448.541 144.864 450.093 133.369 440.159 129.503C436.33 127.935 427.327 129.921 419.669 137.027C414.288 142.043 411.597 149.044 410.149 155.732C408.596 162.42 406.837 174.752 417.909 179.036C421.429 180.603 424.636 181.021 427.844 180.812C439.021 180.185 447.506 163.152 453.819 156.464C458.682 151.134 459.51 158.449 460.235 155.21ZM330.292 178.623C323.152 178.518 320.668 178.518 312.286 178.936L311.976 178.309C312.7 175.069 313.528 171.935 314.252 168.695L315.183 164.306C316.736 157.514 318.288 149.467 318.391 147.064C318.598 145.601 319.012 141.944 314.976 141.944C313.217 141.944 311.355 142.779 309.596 143.615C308.664 147.273 306.594 157.514 305.559 162.112C303.593 171.935 303.386 173.084 302.455 177.892L301.834 178.518C294.487 178.414 291.9 178.414 283.414 178.832L283 178.1C284.449 172.248 285.794 166.396 287.14 160.544C290.658 144.764 291.486 138.704 292.52 130.657L293.141 130.239C301.421 129.09 303.49 128.776 312.389 127L313.114 127.836L311.872 132.852C313.321 131.912 314.873 130.971 316.322 130.239C320.565 128.149 325.222 127.522 327.808 127.522C331.741 127.522 335.984 128.672 337.846 133.27C339.502 137.345 338.364 142.361 336.087 152.289L334.949 157.305C332.569 168.382 332.259 170.367 331.016 177.891L330.189 178.518L330.292 178.623ZM392.293 92.104L386.291 92.209C370.768 92.418 364.559 92.313 362.076 92C361.869 93.15 361.455 95.135 361.455 95.135C361.455 95.135 355.867 121.051 355.867 121.155C355.867 121.155 342.621 176.331 342 178.943C355.556 178.734 361.041 178.734 363.421 179.048C363.939 176.435 367.043 161.074 367.147 161.074C367.147 161.074 369.837 149.788 369.941 149.37C369.941 149.37 370.768 148.22 371.596 147.698H372.838C384.532 147.698 397.674 147.698 408.023 140.07C415.06 134.845 419.82 127.007 421.993 117.602C422.51 115.303 422.924 112.586 422.924 109.765C422.924 106.107 422.2 102.555 420.13 99.733C414.853 92.313 404.4 92.209 392.293 92.104ZM400.054 119.17C398.813 124.917 395.087 129.829 390.327 132.128C386.395 134.113 381.634 134.322 376.667 134.322H373.459L373.666 133.068C373.666 133.068 379.565 107.152 379.565 107.257L379.772 105.898L379.875 104.853L382.255 105.063C382.255 105.063 394.466 106.107 394.673 106.107C399.433 107.988 401.503 112.795 400.054 119.17ZM527.261 127.836L526.537 127C517.741 128.776 516.085 129.09 508.013 130.24L507.393 130.866C507.393 130.971 507.289 131.076 507.289 131.284V131.18C501.287 145.287 501.39 142.257 496.527 153.334C496.527 152.811 496.527 152.498 496.423 151.975L495.181 127.94L494.457 127.104C485.143 128.881 484.937 129.194 476.451 130.344L475.83 130.971C475.726 131.284 475.726 131.598 475.726 131.911L475.83 132.016C476.865 137.554 476.658 136.3 477.693 144.974C478.21 149.258 478.831 153.543 479.348 157.723C480.176 164.829 480.694 168.277 481.728 179.041C475.933 188.655 474.588 192.312 469 200.776L469.31 201.612C477.693 201.299 479.555 201.299 485.764 201.299L487.11 199.731C491.766 189.595 527.365 127.941 527.365 127.941L527.261 127.836ZM224.544 134.758C229.304 131.414 229.924 126.816 225.889 124.413C221.853 122.009 214.713 122.741 209.952 126.085C205.192 129.325 204.675 133.922 208.711 136.43C212.643 138.73 219.783 138.102 224.544 134.758Z" fill="#FEFEFE"/>
<path d="M485.735 201.104L478.801 213.122C476.628 217.197 472.489 220.332 466.073 220.332L455 220.123L458.208 209.255H460.381C461.519 209.255 462.347 209.151 462.968 208.837C463.589 208.628 463.9 208.21 464.417 207.583L468.557 201H485.838L485.735 201.104Z" fill="#FEFEFE"/>
</svg>
