<svg aria-hidden="true" focusable="false" data-prefix="far" data-icon="question-circle" class="svg-inline--fa fa-question-circle fa-w-16" role="img" xmlns="http://www.w3.org/2000/svg" viewBox="0 0 512 512"><path fill="white" d="M 256 8 C 119 8 8 119.1 8 256 c 0 137 111 248 248 248 s 248 -111 248 -248 C 504 119.1 393 8 256 8 z m 0 448 c -110.5 0 -200 -89.4 -200 -200 c 0 -110.5 89.5 -200 200 -200 c 110.5 0 200 89.5 200 200 c 0 110.5 -89.4 200 -200 200 z m 107.2 -255.2 c 0 67.1 -72.4 68.1 -72.4 92.9 V 300 c 0 6.6 -5.4 12 -12 12 h -45.6 c -6.6 0 -12 -5.4 -12 -12 v -8.7 c 0 -35.7 27.1 -50 47.6 -61.5 c 17.6 -9.8 28.3 -16.5 28.3 -29.6 c 0 -17.2 -22 -28.7 -39.8 -28.7 c -23.2 0 -33.9 11 -48.9 30 c -4.1 5.1 -11.5 6.1 -16.7 2.1 l -27.8 -21.1 c -5.1 -3.9 -6.3 -11.1 -2.6 -16.4 C 184.8 131.5 214.9 112 261.8 112 c 49.1 0 101.5 38.3 101.5 88.8 z M 298 368 c 0 23.2 -18.8 42 -42 42 s -42 -18.8 -42 -42 s 18.8 -42 42 -42 s 42 18.8 42 42 z"></path></svg>
