<svg width="660" height="203" viewBox="0 0 660 203" fill="none" xmlns="http://www.w3.org/2000/svg">
<path d="M232.999 199.762L266.36 3.99899H319.72L286.335 199.762H232.999ZM479.11 8.222C468.538 4.256 451.973 0 431.287 0C378.562 0 341.422 26.55 341.107 64.603C340.809 92.733 367.62 108.425 387.86 117.789C408.63 127.383 415.612 133.503 415.514 142.072C415.382 155.193 398.927 161.188 383.591 161.188C362.234 161.188 350.888 158.222 333.365 150.912L326.489 147.801L318.999 191.625C331.463 197.089 354.509 201.823 378.437 202.068C434.527 202.068 470.938 175.822 471.353 135.186C471.553 112.918 457.337 95.97 426.553 81.998C407.903 72.943 396.481 66.899 396.602 57.73C396.602 49.593 406.269 40.891 427.158 40.891C444.608 40.621 457.247 44.426 467.095 48.391L471.876 50.651L479.11 8.22099V8.222ZM616.417 3.99899H575.186C562.412 3.99899 552.854 7.486 547.244 20.233L467.999 199.637H524.031C524.031 199.637 533.192 175.514 535.264 170.219C541.388 170.219 595.818 170.303 603.601 170.303C605.197 177.156 610.092 199.637 610.092 199.637H659.605L616.417 3.99899ZM550.999 130.406C555.412 119.127 572.259 75.683 572.259 75.683C571.943 76.205 576.639 64.349 579.334 56.999L582.94 73.878C582.94 73.878 593.157 120.606 595.292 130.406H550.999ZM187.705 3.99899L135.465 137.495L129.898 110.365C120.173 79.092 89.873 45.21 56 28.247L103.766 199.45L160.222 199.385L244.226 3.99899H187.705Z" fill="white"/>
<path d="M86.722 3.99899H0.681L0 8.07199C66.938 24.276 111.231 63.435 129.618 110.486L110.908 20.526C107.678 8.131 98.311 4.432 86.722 4" fill="#F2AE14"/>
</svg>
